<svg xmlns="http://www.w3.org/2000/svg" width="238" height="50" viewBox="0 0 238 50" fill="none"><path d="M97.5925 0H0V50H97.5925V0Z" fill="#FF743B"></path><path d="M237.161 0H97.5938V50H237.161V0Z" fill="#9FA0B0"></path><path d="M12.8789 7.64679V26.5314L20.0427 17.1102H25.4367L18.8628 26.0244L26.5323 38.4875H21.4334L15.7023 29.4887L12.8789 32.9953V38.4875H8.41211V7.64679H12.8789Z" fill="#1D1D30"></path><path d="M46.6772 27.6305V29.3627H31.1276C31.3383 32.7847 33.6981 34.9816 37.0272 34.9816C39.6399 34.9816 41.3255 33.9677 42.1261 31.9398H46.5087C45.1602 36.3758 41.8311 38.9529 36.9008 38.9529C33.8245 38.9529 31.2961 37.9389 29.3577 35.911C27.4614 33.8832 26.4922 31.1793 26.4922 27.8418C26.4922 24.5042 27.4614 21.8849 29.3577 19.8147C31.254 17.7024 33.7824 16.6462 36.9008 16.6462C42.7582 16.6462 46.6772 20.533 46.6772 27.6305ZM31.1697 25.8561H42.1683C42.1261 22.6453 40.0191 20.5752 36.8586 20.5752C33.6981 20.5752 31.4647 22.7721 31.1697 25.8561Z" fill="#1D1D30"></path><path d="M69.1382 27.6305V29.3627H53.5885C53.7992 32.7847 56.1591 34.9816 59.4881 34.9816C62.1008 34.9816 63.7864 33.9677 64.5871 31.9398H68.9696C67.6211 36.3758 64.2921 38.9529 59.3617 38.9529C56.2855 38.9529 53.7571 37.9389 51.8186 35.911C49.9223 33.8832 48.9531 31.1793 48.9531 27.8418C48.9531 24.5042 49.9223 21.8849 51.8186 19.8147C53.7149 17.7024 56.2433 16.6462 59.3617 16.6462C65.2192 16.6462 69.1382 20.533 69.1382 27.6305ZM53.6307 25.8561H64.6292C64.5871 22.6453 62.4801 20.5752 59.3196 20.5752C56.1591 20.5752 53.9256 22.7721 53.6307 25.8561Z" fill="#1D1D30"></path><path d="M91.3859 19.857C93.24 21.9694 94.1671 24.631 94.1671 27.7995C94.1671 30.9681 93.24 33.6297 91.3437 35.7843C89.4896 37.8967 87.1297 38.9529 84.2221 38.9529C81.0616 38.9529 78.6596 37.6432 77.4797 35.8265V47.5714H72.9707V17.1109H76.8897L77.1847 20.1527C78.7439 17.8291 81.1037 16.6462 84.2221 16.6462C87.1297 16.6462 89.5317 17.7024 91.3859 19.857ZM79.1653 22.7298C77.9432 23.955 77.3533 25.6027 77.3533 27.6305V27.884C77.3954 29.9541 77.9854 31.6018 79.1653 32.8692C80.3873 34.0944 81.778 34.7281 83.3793 34.7281C85.1492 34.7281 86.6241 34.0944 87.7618 32.7847C88.9418 31.4751 89.5317 29.8274 89.5317 27.7995C89.5317 23.7015 87.0033 20.8709 83.4214 20.8709C81.778 20.8709 80.3873 21.5046 79.1653 22.7298Z" fill="#1D1D30"></path><path d="M123.161 24.2085H118.778C118.062 22.0116 116.123 20.7864 113.595 20.7864C111.867 20.7864 110.476 21.4624 109.339 22.7721C108.201 24.0817 107.653 25.7716 107.653 27.8418C107.653 29.9119 108.201 31.5173 109.339 32.827C110.476 34.1366 111.951 34.8126 113.679 34.8126C116.165 34.8126 118.146 33.4607 118.778 31.4328H123.203C122.149 36.2913 118.399 38.9529 113.51 38.9529C110.476 38.9529 107.948 37.9389 105.967 35.8688C103.987 33.7987 103.018 31.0948 103.018 27.8418C103.018 24.5887 103.987 21.9271 105.967 19.8147C107.948 17.7024 110.434 16.6462 113.51 16.6462C118.525 16.6462 122.276 19.35 123.161 24.2085Z" fill="#1D1D30"></path><path d="M135.88 16.6462C139.083 16.6462 141.696 17.7024 143.76 19.7725C145.825 21.8426 146.879 24.5465 146.879 27.7995C146.879 31.0526 145.825 33.7564 143.76 35.8265C141.696 37.8967 139.083 38.9529 135.88 38.9529C132.678 38.9529 130.065 37.8967 128 35.8265C125.935 33.7564 124.924 31.0526 124.924 27.7995C124.924 24.5465 125.935 21.8426 128 19.7725C130.065 17.7024 132.678 16.6462 135.88 16.6462ZM135.922 20.7864C134.026 20.7864 132.509 21.4624 131.329 22.7721C130.149 24.0817 129.559 25.7716 129.559 27.7995C129.559 29.8274 130.149 31.5173 131.329 32.827C132.509 34.1366 134.026 34.8126 135.922 34.8126C137.819 34.8126 139.336 34.1366 140.473 32.827C141.653 31.5173 142.243 29.8274 142.243 27.7995C142.243 25.7716 141.653 24.0817 140.473 22.7721C139.336 21.4624 137.819 20.7864 135.922 20.7864Z" fill="#1D1D30"></path><path d="M170.146 7.64679V38.4875H166.227L165.932 35.4879C164.33 37.8115 161.97 38.9522 158.852 38.9522C155.944 38.9522 153.585 37.896 151.73 35.7836C149.876 33.629 148.949 30.9674 148.949 27.7988C148.949 24.6303 149.876 21.9687 151.73 19.8563C153.627 17.7017 155.987 16.6455 158.894 16.6455C161.97 16.6455 164.204 17.7017 165.679 19.7718V7.64679H170.146ZM153.585 27.7988C153.585 31.8969 156.071 34.7274 159.653 34.7274C161.296 34.7274 162.729 34.136 163.909 32.9108C165.131 31.6856 165.721 30.038 165.721 27.9678V27.7566C165.721 25.6865 165.131 24.0388 163.909 22.8136C162.687 21.5462 161.296 20.9125 159.695 20.9125C156.155 20.9125 153.585 23.7431 153.585 27.7988Z" fill="#1D1D30"></path><path d="M179.373 12.7156C177.688 14.4478 174.232 13.1803 174.443 10.73C174.443 9.08234 175.749 7.85716 177.308 7.85716C179.837 7.68817 181.227 11.1525 179.373 12.7156ZM179.542 17.1094V38.4866H175.075V17.1094H179.542Z" fill="#1D1D30"></path><path d="M201.496 24.631V38.4881H196.987V25.5182C196.987 22.6031 195.681 21.0399 193.363 21.0399C190.793 21.0399 188.98 23.2368 188.98 27.1236V38.4881H184.514V17.1109H188.391L188.728 19.9837C189.781 17.9981 191.846 16.6462 194.585 16.6462C199.01 16.6462 201.496 19.7725 201.496 24.631Z" fill="#1D1D30"></path><path d="M224.589 17.1109V20.9977H221.176C221.639 22.0539 221.892 23.1523 221.892 24.293C221.892 26.4476 221.134 28.2642 219.617 29.7007C218.1 31.0948 216.119 31.813 213.675 31.813C212.116 31.813 210.767 31.5173 209.545 30.9681C209.082 31.4328 208.871 32.0243 208.871 32.7847C208.871 34.0099 209.798 34.7704 211.315 34.7704H216.667C221.091 34.7704 223.493 36.9672 223.493 40.7273C223.493 45.3322 219.996 48.0361 214.391 48.0361C208.281 48.0361 204.91 45.6702 204.91 41.4455C204.91 39.7556 205.668 38.4881 207.185 37.6009C205.373 36.5448 204.488 35.0661 204.488 33.1227C204.488 31.3061 205.205 29.8274 206.68 28.6867C205.752 27.377 205.289 25.9406 205.289 24.293C205.289 22.0539 206.047 20.2372 207.607 18.8008C209.166 17.3644 211.189 16.6462 213.675 16.6462C214.728 16.6462 215.74 16.8152 216.709 17.1109H224.589ZM211.989 38.4036C210.43 38.5304 209.334 39.4598 209.334 41.1497C209.334 43.3044 211.189 44.4028 214.391 44.4028C217.594 44.4028 219.111 43.2621 219.111 40.9807C219.111 39.2486 217.973 38.4036 215.655 38.4036H211.989ZM209.672 24.293C209.672 26.5321 211.273 28.222 213.633 28.222C215.992 28.222 217.552 26.5321 217.552 24.293C217.552 21.9271 215.992 20.3217 213.633 20.3217C211.273 20.3217 209.672 21.9271 209.672 24.293Z" fill="#1D1D30"></path></svg>